<svg xmlns="http://www.w3.org/2000/svg" width="46.21" height="62.713" viewBox="0 0 46.21 62.713"><defs><style>.a{fill:#2c326f;}</style></defs><path class="a" d="M49.21,18.489V52.654c0,1.723-1.492,2.545-3.3,3.829a2.161,2.161,0,0,1-3.3-1.937V21.163A1.835,1.835,0,0,0,41.572,19.4C40.78,18.991,16.032,5.98,16.032,5.98a4.678,4.678,0,0,0-4.466-.053A9.359,9.359,0,0,0,7.85,8.878l27,14.793a1.916,1.916,0,0,1,1.159,1.7V61.028a2.211,2.211,0,0,1-1.218,1.931,2.462,2.462,0,0,1-1.1.254,2.429,2.429,0,0,1-1.274-.343c-.71-.432-25.659-15.731-27.306-16.724-.792-.475-1.72-1.449-1.739-2.172L3,10.023a5.461,5.461,0,0,1,.954-3.406c2.3-3.578,10.328-7.648,14.391-5.538l29.7,15.034a2.406,2.406,0,0,1,1.162,2.376Z" transform="translate(-3 -0.5)"/></svg>