<svg xmlns="http://www.w3.org/2000/svg" width="59.378" height="56.19" viewBox="0 0 59.378 56.19"><defs><style>.a{fill:#ffb0dd;}</style></defs><path class="a" d="M81.835,48H41.543A9.646,9.646,0,0,0,32,57.725V83.659a9.646,9.646,0,0,0,9.543,9.725h3.181v8.645a2.164,2.164,0,0,0,1.221,1.958,2.089,2.089,0,0,0,2.258-.3l12.126-10.3H81.835a9.646,9.646,0,0,0,9.543-9.725V57.725A9.646,9.646,0,0,0,81.835,48ZM48.965,75.014a4.323,4.323,0,1,1,4.241-4.322A4.282,4.282,0,0,1,48.965,75.014Zm12.724,0a4.323,4.323,0,1,1,4.241-4.322A4.282,4.282,0,0,1,61.689,75.014Zm12.724,0a4.323,4.323,0,1,1,4.241-4.322A4.282,4.282,0,0,1,74.413,75.014Z" transform="translate(-32 -48)"/></svg>