<svg xmlns="http://www.w3.org/2000/svg" width="33.575" height="33.575" viewBox="0 0 33.575 33.575"><defs><style>.a{fill:#2c326f;}</style></defs><path class="a" d="M30.844,1H4.731A3.741,3.741,0,0,0,1,4.731V30.844a3.74,3.74,0,0,0,3.731,3.731H17.787V21.518H14.057V16.9h3.731V13.078c0-4.036,2.261-6.872,7.025-6.872l3.363,0v4.859H25.942a2.464,2.464,0,0,0-2.559,2.682V16.9h4.79l-1.059,4.615H23.383V34.575h7.461a3.74,3.74,0,0,0,3.731-3.731V4.731A3.741,3.741,0,0,0,30.844,1Z" transform="translate(-1 -1)"/></svg>