<svg xmlns="http://www.w3.org/2000/svg" width="33.838" height="33.838" viewBox="0 0 33.838 33.838"><defs><style>.a{fill:#2c326f;}</style></defs><path class="a" d="M33.737,9.945a12.419,12.419,0,0,0-.786-4.108,8.294,8.294,0,0,0-1.953-3A8.294,8.294,0,0,0,28,.887,12.419,12.419,0,0,0,23.9.1C22.089.019,21.514,0,16.919,0s-5.17.019-6.974.1A12.419,12.419,0,0,0,5.837.887a8.294,8.294,0,0,0-3,1.953,8.294,8.294,0,0,0-1.951,3A12.419,12.419,0,0,0,.1,9.943C.019,11.749,0,12.325,0,16.919s.019,5.17.1,6.974A12.419,12.419,0,0,0,.887,28a8.294,8.294,0,0,0,1.953,3,8.292,8.292,0,0,0,3,1.953,12.419,12.419,0,0,0,4.106.786c1.807.083,2.382.1,6.976.1s5.17-.019,6.974-.1A12.419,12.419,0,0,0,28,32.951,8.651,8.651,0,0,0,32.951,28a12.419,12.419,0,0,0,.786-4.106c.083-1.807.1-2.382.1-6.976S33.819,11.749,33.737,9.945ZM30.691,23.756a9.358,9.358,0,0,1-.583,3.139A5.6,5.6,0,0,1,26.9,30.108a9.36,9.36,0,0,1-3.141.583c-1.786.081-2.32.1-6.837.1s-5.053-.017-6.837-.1a9.36,9.36,0,0,1-3.139-.583,5.241,5.241,0,0,1-1.948-1.265A5.241,5.241,0,0,1,3.73,26.9a9.358,9.358,0,0,1-.583-3.141c-.081-1.786-.1-2.32-.1-6.837s.017-5.053.1-6.837A9.36,9.36,0,0,1,3.73,6.942,5.241,5.241,0,0,1,4.995,4.995,5.241,5.241,0,0,1,6.941,3.73a9.36,9.36,0,0,1,3.141-.583c1.786-.081,2.32-.1,6.837-.1s5.053.017,6.837.1A9.36,9.36,0,0,1,26.9,3.73a5.241,5.241,0,0,1,1.948,1.265,5.241,5.241,0,0,1,1.265,1.946,9.36,9.36,0,0,1,.583,3.141c.081,1.786.1,2.32.1,6.837S30.772,21.972,30.691,23.756ZM16.919,8.23a8.689,8.689,0,1,0,8.689,8.689A8.689,8.689,0,0,0,16.919,8.23Zm0,14.329a5.64,5.64,0,1,1,5.64-5.64A5.64,5.64,0,0,1,16.919,22.559ZM27.98,7.888a2.03,2.03,0,1,1-2.03-2.03A2.03,2.03,0,0,1,27.98,7.888Z"/></svg>