<svg xmlns="http://www.w3.org/2000/svg" width="41.686" height="45.83" viewBox="0 0 41.686 45.83"><path d="M16.574,4.693a7.249,7.249,0,0,0-2.869,6c.148,1.8.514,4.152.514,4.152s-.725.394-.725,1.978c.252,3.976,1.582,2.26,1.855,4,.658,4.2,2.161,3.453,2.161,5.746,0,3.819-1.575,5.6-6.491,7.721C6.086,36.418,1,39.093,1,43.725V46.04H42.686V43.725c0-4.632-5.088-7.307-10.023-9.43-4.917-2.117-6.487-3.9-6.487-7.721,0-2.293,1.5-1.545,2.158-5.746.276-1.744,1.6-.028,1.86-4,0-1.584-.727-1.978-.727-1.978s.366-2.348.512-4.152a7.156,7.156,0,0,0-5.326-7.17c-.771-.787-1.292-2.04,1.079-3.3C20.544-.017,19.337,2.7,16.574,4.693Z" transform="translate(-1 -0.21)"/></svg>